<?xml version="1.0" encoding="utf-8"?>
<!-- Generator: Adobe Illustrator 26.3.1, SVG Export Plug-In . SVG Version: 6.00 Build 0)  -->
<svg version="1.1" id="Layer_2" xmlns="http://www.w3.org/2000/svg" xmlns:xlink="http://www.w3.org/1999/xlink" x="0px" y="0px"
	 viewBox="0 0 160.7 51" style="enable-background:new 0 0 160.7 51;" xml:space="preserve">
<style type="text/css">
	.st0{fill:#FFFFFF;}
</style>
<path class="st0" d="M150.7,40.6c-1.7-1.3-3.4-2.5-5-3.5c-0.8,1-1.6,2-2.5,2.9c1.4,1.3,3,2.7,4.9,4c10.7,8.2,10.7,8.2,12.1,6.5
	C161.4,48.8,161.4,48.8,150.7,40.6z M158.5,49.3c-0.3,0.4-0.9,0.5-1.3,0.2c-0.4-0.3-0.5-0.9-0.2-1.3c0.3-0.4,0.9-0.5,1.3-0.2
	C158.8,48.3,158.9,48.9,158.5,49.3z"/>
<g>
	<path class="st0" d="M1.4,2.8C3,2.4,5.4,2.2,7.7,2.2c6,0,9.6,2,9.6,7.1c0,3.1-1.3,5.2-3.4,6.3l5,8.1c-0.4,0.3-1.2,0.4-2.4,0.4
		c-1.3,0-2.2-0.2-2.8-0.4l-4.2-7.1H9c-1,0-2.4-0.1-3.1-0.2v7.3c-0.4,0.2-1.2,0.4-2.3,0.4c-1.1,0-1.8-0.2-2.3-0.4V2.8z M5.9,6.3v6.3
		c0.6,0.1,1.7,0.2,2.6,0.2c2.6,0,4.2-0.9,4.2-3.3c0-2.4-1.7-3.4-4.7-3.4C7.3,6.1,6.6,6.2,5.9,6.3z"/>
	<path class="st0" d="M35.6,2.6c0.2,0.4,0.3,1.1,0.3,1.9c0,0.8-0.1,1.6-0.3,1.9h-9.7v4.9h9c0.2,0.4,0.3,1.1,0.3,1.9
		c0,0.8-0.1,1.5-0.3,1.9h-9v5h10c0.2,0.4,0.3,1.1,0.3,1.9c0,0.8-0.1,1.6-0.3,2H21.4V2.6H35.6z"/>
	<path class="st0" d="M50.1,5.9C45.9,5.9,43,8,43,13.3c0,5.2,2.9,7.3,7,7.3c1.9,0,3.8-0.5,5.1-1c0.1,1.1-0.5,3-1.2,4
		c-1.3,0.6-3.2,1.1-5.3,1.1c-6.5,0-10.3-4.2-10.3-11.1c0-7.5,4.4-11.7,10.9-11.7c1.7,0,3.5,0.3,4.6,1c0.7,1,1,2.8,0.8,4.1
		C53.2,6.2,51.9,5.9,50.1,5.9z"/>
	<path class="st0" d="M58.1,2.8c0.5-0.2,1.2-0.4,2.3-0.4c1.1,0,1.8,0.2,2.3,0.4v20.9c-0.4,0.2-1.2,0.4-2.3,0.4
		c-1.1,0-1.8-0.2-2.3-0.4V2.8z"/>
	<path class="st0" d="M67.1,2.8c1.6-0.4,4.1-0.6,6.4-0.6c6.1,0,9.7,2.1,9.7,7.4c0,5.4-3.7,7.7-8.3,7.7c-1,0-2.5-0.1-3.2-0.2v6.6
		c-0.4,0.2-1.2,0.4-2.3,0.4c-1.1,0-1.8-0.2-2.3-0.4V2.8z M71.6,6.3v7c0.6,0.1,1.7,0.2,2.7,0.2c2.7,0,4.3-1.1,4.3-3.6
		c0-2.7-1.7-3.8-4.8-3.8C73,6.1,72.3,6.2,71.6,6.3z"/>
	<path class="st0" d="M99.8,2.6c0.2,0.4,0.3,1.1,0.3,1.9c0,0.8-0.1,1.6-0.3,1.9h-9.7v4.9h9c0.2,0.4,0.3,1.1,0.3,1.9
		c0,0.8-0.1,1.5-0.3,1.9h-9v5h10c0.2,0.4,0.3,1.1,0.3,1.9c0,0.8-0.1,1.6-0.3,2H85.6V2.6H99.8z"/>
	<path class="st0" d="M1.4,29.6h13.5c0.2,0.4,0.3,1.1,0.3,2c0,0.8-0.1,1.6-0.3,2H5.9v5.4h8.2c0.2,0.4,0.3,1.1,0.3,2
		c0,0.8-0.1,1.6-0.3,1.9H5.9v8c-0.4,0.2-1.2,0.4-2.3,0.4c-1.1,0-1.8-0.2-2.3-0.4V29.6z"/>
	<path class="st0" d="M17.2,29.8c0.5-0.2,1.2-0.4,2.3-0.4c1.1,0,1.8,0.2,2.3,0.4v20.9c-0.4,0.2-1.2,0.4-2.3,0.4
		c-1.1,0-1.8-0.2-2.3-0.4V29.8z"/>
	<path class="st0" d="M30,50.8c-0.4,0.2-1.1,0.4-2.2,0.4c-1,0-1.7-0.1-2.1-0.4v-21c0.7-0.2,1.7-0.3,3-0.3c1.3,0,2.3,0.1,3,0.3
		l5.8,10.6c0.8,1.4,1.5,3.7,1.9,5.5h0.2v-16c0.4-0.2,1.1-0.4,2.1-0.4c1,0,1.7,0.1,2.1,0.4v21c-0.6,0.2-1.5,0.3-2.8,0.3
		c-1.3,0-2.2-0.1-2.8-0.3l-6.2-11.2c-0.7-1.2-1.4-3.4-1.9-5.5H30V50.8z"/>
	<path class="st0" d="M47.8,29.9c2.1-0.4,4.2-0.6,6.5-0.6c7.1,0,11.8,3.4,11.8,10.9c0,7.6-5,11.1-11.2,11.1c-2.3,0-4.8-0.1-7.1-0.3
		V29.9z M52.4,47.1c0.8,0.1,1.8,0.1,2.6,0.1c4,0,6.4-2.2,6.4-6.9c0-5-2.8-7.2-7-7.2c-0.7,0-1.4,0-2.1,0.2V47.1z"/>
	<path class="st0" d="M82.8,29.6c0.2,0.4,0.3,1.1,0.3,1.9c0,0.8-0.1,1.6-0.3,1.9h-9.7v4.9h9c0.2,0.4,0.3,1.1,0.3,1.9
		c0,0.8-0.1,1.5-0.3,1.9h-9v5h10c0.2,0.4,0.3,1.1,0.3,1.9c0,0.8-0.1,1.6-0.3,2H68.6V29.6H82.8z"/>
	<path class="st0" d="M86,29.8c1.6-0.4,4.1-0.6,6.3-0.6c6,0,9.6,2,9.6,7.1c0,3.1-1.3,5.2-3.4,6.3l5,8.1c-0.4,0.3-1.2,0.4-2.4,0.4
		c-1.3,0-2.2-0.2-2.8-0.4l-4.2-7.1h-0.5c-1,0-2.4-0.1-3.1-0.2v7.3c-0.4,0.2-1.2,0.4-2.3,0.4c-1.1,0-1.8-0.2-2.3-0.4V29.8z
		 M90.6,33.3v6.3c0.6,0.1,1.7,0.2,2.6,0.2c2.6,0,4.2-0.9,4.2-3.3c0-2.4-1.7-3.4-4.7-3.4C92,33.1,91.2,33.2,90.6,33.3z"/>
</g>
<g>
	<path class="st0" d="M127.2,3.2c-11.3,0-20.5,9.2-20.5,20.5s9.2,20.5,20.5,20.5c11.3,0,20.5-9.2,20.5-20.5S138.5,3.2,127.2,3.2z
		 M127.2,38.5c-8.1,0-14.8-6.6-14.8-14.8S119,9,127.2,9s14.8,6.6,14.8,14.8S135.3,38.5,127.2,38.5z"/>
	<path class="st0" d="M127.2,11c-7,0-12.8,5.7-12.8,12.8s5.7,12.8,12.8,12.8c7,0,12.8-5.7,12.8-12.8S134.2,11,127.2,11z"/>
</g>
</svg>
